<?xml version="1.0" encoding="UTF-8" standalone="no"?>
<!DOCTYPE svg PUBLIC "-//W3C//DTD SVG 1.1//EN"
 "http://www.w3.org/Graphics/SVG/1.1/DTD/svg11.dtd">
<!-- Generated by graphviz version 2.44.0 (0)
 -->
<!-- Title: snakemake_dag Pages: 1 -->
<svg width="509pt" height="404pt"
 viewBox="0.00 0.00 509.00 404.00" xmlns="http://www.w3.org/2000/svg" xmlns:xlink="http://www.w3.org/1999/xlink">
<g id="graph0" class="graph" transform="scale(1 1) rotate(0) translate(4 400)">
<title>snakemake_dag</title>
<polygon fill="white" stroke="transparent" points="-4,4 -4,-400 505,-400 505,4 -4,4"/>
<!-- 0 -->
<g id="node1" class="node">
<title>0</title>
<path fill="none" stroke="#d85656" stroke-width="2" d="M91,-36C91,-36 61,-36 61,-36 55,-36 49,-30 49,-24 49,-24 49,-12 49,-12 49,-6 55,0 61,0 61,0 91,0 91,0 97,0 103,-6 103,-12 103,-12 103,-24 103,-24 103,-30 97,-36 91,-36"/>
<text text-anchor="middle" x="76" y="-15.5" font-family="sans" font-size="10.00">all</text>
</g>
<!-- 1 -->
<g id="node2" class="node">
<title>1</title>
<path fill="none" stroke="#9fd856" stroke-width="2" d="M51.5,-396C51.5,-396 14.5,-396 14.5,-396 8.5,-396 2.5,-390 2.5,-384 2.5,-384 2.5,-372 2.5,-372 2.5,-366 8.5,-360 14.5,-360 14.5,-360 51.5,-360 51.5,-360 57.5,-360 63.5,-366 63.5,-372 63.5,-372 63.5,-384 63.5,-384 63.5,-390 57.5,-396 51.5,-396"/>
<text text-anchor="middle" x="33" y="-375.5" font-family="sans" font-size="10.00">parse_all</text>
</g>
<!-- 1&#45;&gt;0 -->
<g id="edge4" class="edge">
<title>1&#45;&gt;0</title>
<path fill="none" stroke="grey" stroke-width="2" d="M26.32,-359.81C16.68,-333.4 0,-281.06 0,-235 0,-235 0,-235 0,-161 0,-115.64 30.52,-70.75 52.88,-43.95"/>
<polygon fill="grey" stroke="grey" stroke-width="2" points="55.64,-46.09 59.51,-36.23 50.34,-41.53 55.64,-46.09"/>
</g>
<!-- 2 -->
<g id="node3" class="node">
<title>2</title>
<path fill="none" stroke="#88d856" stroke-width="2" d="M92,-324C92,-324 40,-324 40,-324 34,-324 28,-318 28,-312 28,-312 28,-300 28,-300 28,-294 34,-288 40,-288 40,-288 92,-288 92,-288 98,-288 104,-294 104,-300 104,-300 104,-312 104,-312 104,-318 98,-324 92,-324"/>
<text text-anchor="middle" x="66" y="-303.5" font-family="sans" font-size="10.00">parse_comb</text>
</g>
<!-- 1&#45;&gt;2 -->
<g id="edge6" class="edge">
<title>1&#45;&gt;2</title>
<path fill="none" stroke="grey" stroke-width="2" d="M41.16,-359.7C44.91,-351.73 49.45,-342.1 53.62,-333.26"/>
<polygon fill="grey" stroke="grey" stroke-width="2" points="56.84,-334.64 57.94,-324.1 50.51,-331.66 56.84,-334.64"/>
</g>
<!-- 2&#45;&gt;0 -->
<g id="edge1" class="edge">
<title>2&#45;&gt;0</title>
<path fill="none" stroke="grey" stroke-width="2" d="M62.35,-287.91C60.32,-277.57 58.02,-264.09 57,-252 50.73,-177.62 63.28,-89.86 70.84,-46.33"/>
<polygon fill="grey" stroke="grey" stroke-width="2" points="74.32,-46.71 72.64,-36.25 67.43,-45.48 74.32,-46.71"/>
</g>
<!-- 3 -->
<g id="node4" class="node">
<title>3</title>
<path fill="none" stroke="#78d856" stroke-width="2" d="M244,-252C244,-252 78,-252 78,-252 72,-252 66,-246 66,-240 66,-240 66,-228 66,-228 66,-222 72,-216 78,-216 78,-216 244,-216 244,-216 250,-216 256,-222 256,-228 256,-228 256,-240 256,-240 256,-246 250,-252 244,-252"/>
<text text-anchor="middle" x="161" y="-231.5" font-family="sans" font-size="10.00">parse_harmony_integration_python</text>
</g>
<!-- 2&#45;&gt;3 -->
<g id="edge7" class="edge">
<title>2&#45;&gt;3</title>
<path fill="none" stroke="grey" stroke-width="2" d="M89.48,-287.7C101.56,-278.8 116.45,-267.82 129.52,-258.2"/>
<polygon fill="grey" stroke="grey" stroke-width="2" points="131.81,-260.85 137.79,-252.1 127.66,-255.22 131.81,-260.85"/>
</g>
<!-- 3&#45;&gt;0 -->
<g id="edge3" class="edge">
<title>3&#45;&gt;0</title>
<path fill="none" stroke="grey" stroke-width="2" d="M150.25,-215.85C135.96,-192.35 110.77,-148.44 96,-108 88.63,-87.83 83.46,-64.05 80.22,-46.15"/>
<polygon fill="grey" stroke="grey" stroke-width="2" points="83.64,-45.37 78.49,-36.1 76.74,-46.55 83.64,-45.37"/>
</g>
<!-- 4 -->
<g id="node5" class="node">
<title>4</title>
<path fill="none" stroke="#56d863" stroke-width="2" d="M235.5,-108C235.5,-108 116.5,-108 116.5,-108 110.5,-108 104.5,-102 104.5,-96 104.5,-96 104.5,-84 104.5,-84 104.5,-78 110.5,-72 116.5,-72 116.5,-72 235.5,-72 235.5,-72 241.5,-72 247.5,-78 247.5,-84 247.5,-84 247.5,-96 247.5,-96 247.5,-102 241.5,-108 235.5,-108"/>
<text text-anchor="middle" x="176" y="-87.5" font-family="sans" font-size="10.00">parse_harmony_notebook</text>
</g>
<!-- 3&#45;&gt;4 -->
<g id="edge8" class="edge">
<title>3&#45;&gt;4</title>
<path fill="none" stroke="grey" stroke-width="2" d="M157.65,-215.79C154.7,-197.75 151.5,-168.66 156,-144 157.61,-135.2 160.6,-125.95 163.79,-117.7"/>
<polygon fill="grey" stroke="grey" stroke-width="2" points="167.12,-118.79 167.69,-108.21 160.65,-116.12 167.12,-118.79"/>
</g>
<!-- 6 -->
<g id="node7" class="node">
<title>6</title>
<path fill="none" stroke="#d89556" stroke-width="2" d="M375,-180C375,-180 177,-180 177,-180 171,-180 165,-174 165,-168 165,-168 165,-156 165,-156 165,-150 171,-144 177,-144 177,-144 375,-144 375,-144 381,-144 387,-150 387,-156 387,-156 387,-168 387,-168 387,-174 381,-180 375,-180"/>
<text text-anchor="middle" x="276" y="-159.5" font-family="sans" font-size="10.00">convert_harmony_integrated_h5ad_to_rds</text>
</g>
<!-- 3&#45;&gt;6 -->
<g id="edge11" class="edge">
<title>3&#45;&gt;6</title>
<path fill="none" stroke="grey" stroke-width="2" d="M189.13,-215.88C204.17,-206.72 222.87,-195.34 239.06,-185.48"/>
<polygon fill="grey" stroke="grey" stroke-width="2" points="241.04,-188.38 247.76,-180.19 237.4,-182.4 241.04,-188.38"/>
</g>
<!-- 7 -->
<g id="node8" class="node">
<title>7</title>
<path fill="none" stroke="#56d8c9" stroke-width="2" d="M489,-180C489,-180 417,-180 417,-180 411,-180 405,-174 405,-168 405,-168 405,-156 405,-156 405,-150 411,-144 417,-144 417,-144 489,-144 489,-144 495,-144 501,-150 501,-156 501,-156 501,-168 501,-168 501,-174 495,-180 489,-180"/>
<text text-anchor="middle" x="453" y="-159.5" font-family="sans" font-size="10.00">save_raw_adata</text>
</g>
<!-- 3&#45;&gt;7 -->
<g id="edge12" class="edge">
<title>3&#45;&gt;7</title>
<path fill="none" stroke="grey" stroke-width="2" d="M242.9,-215.96C285.73,-206.71 339.2,-194.64 395.13,-180.15"/>
<polygon fill="grey" stroke="grey" stroke-width="2" points="396.07,-183.52 404.86,-177.61 394.3,-176.75 396.07,-183.52"/>
</g>
<!-- 4&#45;&gt;0 -->
<g id="edge5" class="edge">
<title>4&#45;&gt;0</title>
<path fill="none" stroke="grey" stroke-width="2" d="M151.54,-71.88C138.7,-62.89 122.8,-51.76 108.91,-42.03"/>
<polygon fill="grey" stroke="grey" stroke-width="2" points="110.76,-39.06 100.56,-36.19 106.74,-44.79 110.76,-39.06"/>
</g>
<!-- 5 -->
<g id="node6" class="node">
<title>5</title>
<path fill="none" stroke="#d86e56" stroke-width="2" d="M362.5,-108C362.5,-108 277.5,-108 277.5,-108 271.5,-108 265.5,-102 265.5,-96 265.5,-96 265.5,-84 265.5,-84 265.5,-78 271.5,-72 277.5,-72 277.5,-72 362.5,-72 362.5,-72 368.5,-72 374.5,-78 374.5,-84 374.5,-84 374.5,-96 374.5,-96 374.5,-102 368.5,-108 362.5,-108"/>
<text text-anchor="middle" x="320" y="-87.5" font-family="sans" font-size="10.00">build_seurat5shiny</text>
</g>
<!-- 5&#45;&gt;0 -->
<g id="edge2" class="edge">
<title>5&#45;&gt;0</title>
<path fill="none" stroke="grey" stroke-width="2" d="M265.24,-73.29C218.74,-59.95 153.29,-41.17 112.81,-29.56"/>
<polygon fill="grey" stroke="grey" stroke-width="2" points="113.66,-26.16 103.08,-26.77 111.73,-32.89 113.66,-26.16"/>
</g>
<!-- 6&#45;&gt;5 -->
<g id="edge10" class="edge">
<title>6&#45;&gt;5</title>
<path fill="none" stroke="grey" stroke-width="2" d="M286.88,-143.7C291.99,-135.56 298.2,-125.69 303.84,-116.7"/>
<polygon fill="grey" stroke="grey" stroke-width="2" points="306.89,-118.43 309.25,-108.1 300.96,-114.71 306.89,-118.43"/>
</g>
<!-- 7&#45;&gt;5 -->
<g id="edge9" class="edge">
<title>7&#45;&gt;5</title>
<path fill="none" stroke="grey" stroke-width="2" d="M420.46,-143.88C402.75,-134.55 380.65,-122.92 361.68,-112.94"/>
<polygon fill="grey" stroke="grey" stroke-width="2" points="363.14,-109.75 352.66,-108.19 359.88,-115.94 363.14,-109.75"/>
</g>
</g>
</svg>
